<svg xmlns="http://www.w3.org/2000/svg" width="2.1in" height="2.1in" viewBox="0 0 154.3 152.9"><title>Artboard 1 copy 4</title><g id="Linkedin"><path d="M80.3,108.1,59.2,98.2,84.7,43.3l21.2,9.8ZM65.4,95.9,78,101.8,99.6,55.4,87,49.5Z" fill="#e3e668"/><path d="M106.8,51.7,85.7,41.8l2-4.3a8.3,8.3,0,0,1,4.7-4.3,7.7,7.7,0,0,1,6.3.3l6.2,2.8a8.5,8.5,0,0,1,4,11ZM91.9,39.6l12.7,5.9v-.2a3.2,3.2,0,0,0,.1-2.7,3.5,3.5,0,0,0-1.8-2l-6.2-2.9a3.7,3.7,0,0,0-4.8,1.8Z" fill="#e3e668"/><path d="M62,122.8a4,4,0,0,1-1.5-.3,3.8,3.8,0,0,1-2.2-3.5l.5-19.2,20.1,9.3L64.5,121.9A3.8,3.8,0,0,1,62,122.8Zm-.6-4.5h0ZM63.3,107l-.3,9.9,7.4-6.6Z" fill="#e3e668"/></g></svg>