<svg id="instagram" xmlns="http://www.w3.org/2000/svg" width="2.1in" height="2.1in" viewBox="0 0 154.3 152.9"><title>Artboard 1</title><path d="M77.2,8.8a67.4,67.4,0,1,0,67.5,67.4A67.5,67.5,0,0,0,77.2,8.8Zm0,127.5a60.1,60.1,0,1,1,60.1-60.1A60.1,60.1,0,0,1,77.2,136.3Z" fill="#e3e668"/><path d="M102.6,44.1H51.8a8.7,8.7,0,0,0-8.7,8.7v50.9a8.7,8.7,0,0,0,8.7,8.7h50.9a8.7,8.7,0,0,0,8.7-8.7V52.7A8.7,8.7,0,0,0,102.6,44.1ZM64.5,74.7a13.8,13.8,0,1,1-1.1,5.4A13.8,13.8,0,0,1,64.5,74.7Zm39.2,27.4a4.1,4.1,0,0,1-4.1,4.1H54.8a4.1,4.1,0,0,1-4.1-4.1V74.7h6.6a20.6,20.6,0,1,0,39.8,0h6.6ZM105,65.7a2.7,2.7,0,0,1-2.7,2.7h-12a2.7,2.7,0,0,1-2.7-2.7v-12a2.7,2.7,0,0,1,2.7-2.7h12a2.7,2.7,0,0,1,2.7,2.7Z" fill="#e3e668"/></svg>