<svg id="instagram" xmlns="http://www.w3.org/2000/svg" width="2.1in" height="2.1in" viewBox="0 0 154.3 152.9"><title>Artboard 1</title><path d="M77.2,8.8a67.5,67.5,0,1,0,67.5,67.4A67.4,67.4,0,0,0,77.2,8.8Zm0,127.5a60.1,60.1,0,1,1,60.1-60.1A60,60,0,0,1,77.2,136.3Z" fill="#e3e668"/><path d="M98.8,47.1H55.5a7.4,7.4,0,0,0-7.4,7.3V97.8a7.4,7.4,0,0,0,7.4,7.3H98.8a7.4,7.4,0,0,0,7.4-7.3V54.4A7.4,7.4,0,0,0,98.8,47.1ZM66.3,73.2a11.8,11.8,0,0,1,21.7,0,11.4,11.4,0,0,1,.9,4.6,11.8,11.8,0,0,1-23.5,0A11.4,11.4,0,0,1,66.3,73.2ZM99.7,96.5a3.4,3.4,0,0,1-3.5,3.5H58.1a3.5,3.5,0,0,1-3.5-3.5V73.2h5.6a17,17,0,0,0-.6,4.6,17.6,17.6,0,0,0,35.1,0,17,17,0,0,0-.6-4.6h5.6Zm1.1-31a2.3,2.3,0,0,1-2.3,2.3H88.3a2.2,2.2,0,0,1-2.2-2.3V55.3A2.2,2.2,0,0,1,88.3,53H98.5a2.3,2.3,0,0,1,2.3,2.3Z" fill="#e3e668"/></svg>