<svg xmlns="http://www.w3.org/2000/svg" width="2.1in" height="2.1in" viewBox="0 0 154.3 152.9"><title>Artboard 1 copy 2</title><g id="Linkedin"><path d="M77.7,8.8a67.5,67.5,0,1,0,67.4,67.4A67.5,67.5,0,0,0,77.7,8.8Zm0,127.5a60.1,60.1,0,1,1,60-60.1A60.1,60.1,0,0,1,77.7,136.3Z" fill="#e3e668"/><rect x="50.5" y="62.3" width="12.8" height="40.9" fill="#e3e668"/><path d="M71.3,62.5v40.9H85.6V80.8a7.3,7.3,0,0,1,6.9-7.4h1.3a7.2,7.2,0,0,1,5.8,7.2v22.7h14.8V77.9c-1.1-23.3-28.5-16.3-28.7-8.1V62.5Z" fill="#e3e668"/><circle cx="56.8" cy="49.4" r="7.2" fill="#e3e668"/></g></svg>