<svg xmlns="http://www.w3.org/2000/svg" width="2.1in" height="2.1in" viewBox="0 0 154.3 152.9"><title>Artboard 1 copy 2</title><g id="Linkedin"><path d="M77.7,8.8a67.5,67.5,0,1,0,67.4,67.4A67.5,67.5,0,0,0,77.7,8.8Zm0,127.5a60.1,60.1,0,1,1,60-60.1A60.1,60.1,0,0,1,77.7,136.3Z" fill="#e3e668"/><rect x="52.3" y="63.4" width="10.9" height="35.03" fill="#e3e668"/><path d="M70.2,63.6V98.7H82.4V79.3A6.1,6.1,0,0,1,88.3,73h1.1a6.1,6.1,0,0,1,5,6.2V98.7h12.7V76.8c-.9-20-24.4-14-24.5-7V63.6Z" fill="#e3e668"/><circle cx="57.8" cy="52.4" r="6.2" fill="#e3e668"/></g></svg>