<svg xmlns="http://www.w3.org/2000/svg"><symbol id="linkedin" viewBox="0 0 154.3 152.9"><g fill="#c2c1c0"><path d="M77.7 8.8a67.4 67.4 0 1 0 67.5 67.4A67.5 67.5 0 0 0 77.7 8.8zm0 127.5a60.1 60.1 0 1 1 60.1-60.1 60.1 60.1 0 0 1-60.1 60.1z"/><path d="M50.5 62.3h12.8v40.9H50.5zm20.8.2v40.9h14.3V80.8a7.3 7.3 0 0 1 6.9-7.4h1.3a7.1 7.1 0 0 1 5.8 7.1v22.8h14.8V77.9c-1.1-23.3-28.5-16.3-28.7-8.1v-7.3z"/><circle cx="56.8" cy="49.4" r="7.2"/></g></symbol><symbol id="facebook" viewBox="0 0 154.3 152.9"><g fill="#c2c1c0"><path d="M78.4 8.8a67.4 67.4 0 1 0 67.5 67.4A67.5 67.5 0 0 0 78.4 8.8zm0 127.5a60.1 60.1 0 1 1 60.1-60.1 60.1 60.1 0 0 1-60.1 60.1z"/><path d="M95.7 36.4v14.1h-9.9a2.7 2.7 0 0 0-2.7 2.7v10.1h12.6l-1.4 14.6H83.1v41.8H66.4V77.9h-8.8V63.6h8.7v-15a12.1 12.1 0 0 1 12.2-12.2z"/></g></symbol><symbol id="instagram" viewBox="0 0 154.3 152.9"><path fill="#c2c1c0" d="M77.2 8.8a67.4 67.4 0 1 0 67.5 67.4A67.5 67.5 0 0 0 77.2 8.8zm0 127.5a60.1 60.1 0 1 1 60.1-60.1 60.1 60.1 0 0 1-60.1 60.1z"/><path fill="#c2c1c0" d="M102.6 44.1H51.8a8.7 8.7 0 0 0-8.7 8.7v50.9a8.7 8.7 0 0 0 8.7 8.7h50.9a8.7 8.7 0 0 0 8.7-8.7v-51a8.7 8.7 0 0 0-8.8-8.6zM64.5 74.7a13.8 13.8 0 1 1-1.1 5.4 13.8 13.8 0 0 1 1.1-5.4zm39.2 27.4a4.1 4.1 0 0 1-4.1 4.1H54.8a4.1 4.1 0 0 1-4.1-4.1V74.7h6.6a20.6 20.6 0 1 0 39.8 0h6.6zm1.3-36.4a2.7 2.7 0 0 1-2.7 2.7h-12a2.7 2.7 0 0 1-2.7-2.7v-12a2.7 2.7 0 0 1 2.7-2.7h12a2.7 2.7 0 0 1 2.7 2.7z"/></symbol></svg>